<svg xmlns="http://www.w3.org/2000/svg" viewBox="0 0 64 64" id="chat">
  <defs>
    <linearGradient id="a" x1="4" x2="60" y1="32" y2="32" gradientUnits="userSpaceOnUse">
      <stop offset="0" stop-color="#ffa68d"></stop>
      <stop offset="1" stop-color="#fd3a84"></stop>
    </linearGradient>
  </defs>
  <path fill="url(#a)" d="M43.1,37.78l.16.16V42.7a4.02664,4.02664,0,0,1-4.02,4.02H20.02l-6.6,6.74a1.65912,1.65912,0,0,1-1.19.51,1.6981,1.6981,0,0,1-1.69-1.68V46.72H8.02A4.02022,4.02022,0,0,1,4,42.7V24.56a4.02023,4.02023,0,0,1,4.02-4.02H19.05V31.85a5.93861,5.93861,0,0,0,5.94,5.93ZM60,14.05V32.19a4.02022,4.02022,0,0,1-4.02,4.02H53.46v5.57a1.69849,1.69849,0,0,1-1.69,1.68,1.65936,1.65936,0,0,1-1.19-.51l-6.6-6.74H24.76a4.02664,4.02664,0,0,1-4.02-4.02V14.05a4.03312,4.03312,0,0,1,4.02-4.02H55.98A4.02666,4.02666,0,0,1,60,14.05ZM52.84,19H45.33a1,1,0,1,0,0,2h7.51A1.00011,1.00011,0,0,0,52.84,19Zm-2.66,6.25H28.06005a1.00012,1.00012,0,0,0-.00005,2H50.18A1.00017,1.00017,0,0,0,50.18,25.25ZM27.9,21H40.75a1,1,0,0,0,0-2H27.9a1,1,0,1,0,0,2Z"></path>
</svg>
