<svg id="SvgjsSvg1001" width="288" height="288" xmlns="http://www.w3.org/2000/svg" version="1.1" xmlns:xlink="http://www.w3.org/1999/xlink" xmlns:svgjs="http://svgjs.com/svgjs"><defs id="SvgjsDefs1002"></defs><g id="SvgjsG1008"><svg xmlns="http://www.w3.org/2000/svg" viewBox="0 0 32 32" width="288" height="288"><path fill="#567c8d" d="M29.92,16.29a3.92,3.92,0,0,0-2.17-6.68l-4.7-.68a1.92,1.92,0,0,1-1.44-1l-2.1-4.27a3.92,3.92,0,0,0-7,0l-2.1,4.27A1.92,1.92,0,0,1,9,8.93l-4.7.68a3.91,3.91,0,0,0-2.17,6.67l3.4,3.32A1.9,1.9,0,0,1,6,21.29L5.23,26A3.91,3.91,0,0,0,10.9,30.1l4.21-2.21a1.93,1.93,0,0,1,1.78,0L21.1,30.1A3.91,3.91,0,0,0,26.77,26L26,21.29h0a1.9,1.9,0,0,1,.55-1.69Z" class="svgShape color4eb89e-0 selectable"></path></svg></g></svg>